<?xml version="1.0" encoding="UTF-8" standalone="no"?>
<!-- Created with Inkscape (http://www.inkscape.org/) -->

<svg
   width="60mm"
   height="49mm"
   viewBox="0 0 60 49"
   version="1.1"
   id="svg1"
   inkscape:version="1.4 (86a8ad7, 2024-10-11)"
   sodipodi:docname="logo.svg"
   xmlns:inkscape="http://www.inkscape.org/namespaces/inkscape"
   xmlns:sodipodi="http://sodipodi.sourceforge.net/DTD/sodipodi-0.dtd"
   xmlns="http://www.w3.org/2000/svg"
   xmlns:svg="http://www.w3.org/2000/svg">
  <sodipodi:namedview
     id="namedview1"
     pagecolor="#ffffff"
     bordercolor="#000000"
     borderopacity="0.25"
     inkscape:showpageshadow="2"
     inkscape:pageopacity="0.0"
     inkscape:pagecheckerboard="0"
     inkscape:deskcolor="#d1d1d1"
     inkscape:document-units="mm"
     inkscape:zoom="2.9858596"
     inkscape:cx="147.52871"
     inkscape:cy="145.51924"
     inkscape:window-width="2560"
     inkscape:window-height="1387"
     inkscape:window-x="1912"
     inkscape:window-y="-8"
     inkscape:window-maximized="1"
     inkscape:current-layer="layer1" />
  <defs
     id="defs1">
    <rect
       x="312.80774"
       y="107.17182"
       width="48.562229"
       height="127.26653"
       id="rect6" />
  </defs>
  <g
     inkscape:label="Layer 1"
     inkscape:groupmode="layer"
     id="layer1">
    <path
       id="text5"
       style="white-space:pre;fill:#ff8b8b;fill-opacity:1;stroke-width:3.13209"
       d="m 54.390375,38.909961 c -0.599253,0 -1.106113,0.204221 -1.520981,0.612825 -0.414868,0.408602 -0.622545,1.116952 -0.622545,2.12484 0,0.980647 0.207677,1.688998 0.622545,2.124841 0.414868,0.435843 0.921728,0.653679 1.520981,0.653679 0.576206,0 1.071872,-0.217836 1.48674,-0.653679 0.437916,-0.435843 0.656787,-1.144194 0.656787,-2.124841 0,-1.007888 -0.218871,-1.716238 -0.656787,-2.12484 -0.414868,-0.408604 -0.910534,-0.612825 -1.48674,-0.612825 z" />
    <path
       id="path7"
       style="white-space:pre;fill:#ff8b8b;fill-opacity:1;stroke-width:4.56536"
       d="m 54.401228,4.4848048 c -1.504247,0.041537 -3.003163,0.833748 -2.914551,2.251542 0.287989,5.4717982 1.369942,28.1042282 1.369942,28.1042282 0.132918,2.63621 3.100654,2.63621 3.122807,0 0,0 1.03713,-22.610276 1.369425,-28.1042282 0.06646,-1.583941 -1.443377,-2.293079 -2.947623,-2.251542 z" />
    <g
       id="g5"
       transform="rotate(26.26944,97.549796,-19.207877)">
      <path
         id="rect1"
         style="fill:#f2ad66;fill-opacity:1;stroke-width:0.264163"
         d="m 55.302273,26.809216 c -9.537461,-1.28e-4 -22.078524,6.882661 -22.078374,13.440667 0.0047,1.611731 5.29584,1.639481 6.225442,3.119046 L 65.487062,72.20503 70.541691,69.737862 V 44.223657 c 1.322037,-1.705669 2.018555,-3.607459 2.029073,-5.54023 1.51e-4,-6.557868 -7.731232,-11.874144 -17.268491,-11.874211 z"
         sodipodi:nodetypes="cccccccc" />
      <path
         id="path1"
         style="fill:#ffd0a0;fill-opacity:1;stroke-width:0.264583"
         d="m 50.196384,29.290355 a 17.323668,11.874023 0 0 0 -17.324007,11.874211 17.323668,11.874023 0 0 0 1.420585,4.685502 V 72.219001 H 65.484339 V 46.704796 a 17.323668,11.874023 0 0 0 2.035535,-5.54023 17.323668,11.874023 0 0 0 -17.32349,-11.874211 z" />
      <rect
         style="fill:#ffb87b;fill-opacity:1;stroke-width:0.264583"
         id="rect3"
         width="3.8221519"
         height="18.42152"
         x="67.403358"
         y="-29.606434"
         ry="1.9110759"
         transform="rotate(62.432964)" />
      <rect
         style="fill:#ffb87b;fill-opacity:1;stroke-width:0.170582"
         id="rect4"
         width="2.4642169"
         height="11.876719"
         x="80.485107"
         y="-27.210119"
         ry="1.2321085"
         transform="rotate(62.432964)" />
      <rect
         style="fill:#ffb87b;fill-opacity:1;stroke-width:0.170582"
         id="rect5"
         width="2.4642169"
         height="11.876719"
         x="54.312595"
         y="-25.818161"
         ry="1.2321085"
         transform="rotate(62.432964)" />
    </g>
  </g>
</svg>
